<svg width="32" height="32" viewBox="0 0 32 32" fill="none" xmlns="http://www.w3.org/2000/svg">
  <style>
    @media (prefers-color-scheme: dark) {
      .light-mode { display: none; }
    }
    
    @media (prefers-color-scheme: light) {
      .dark-mode { display: none; }
    }
  </style>
  <path class="light-mode" d="M18.747 28.1622H2L14.1137 16.0485L2 3.86914H18.747L15.9669 16.0485L18.747 28.1622Z" fill="#213BF7"/>
  <path class="light-mode" opacity="0.55" d="M17.5458 16.4828L26.1622 28.163H18.7461L15.9683 16.0498L18.7461 3.86769H26.1622L17.5489 15.6069L17.2245 16.0498L17.5458 16.4828Z" fill="#213BF7"/>
  <path class="light-mode" opacity="0.2" d="M19.1988 17.3618L30 28.163H26.1622L17.2245 16.0498L26.1622 3.86769H30L17.8836 16.0466L19.1988 17.3618Z" fill="#213BF7"/>

  <path class="dark-mode" d="M18.747 28.1622H2L14.1137 16.0485L2 3.86914H18.747L15.9669 16.0485L18.747 28.1622Z" fill="#FFFFFF"/>
  <path class="dark-mode" opacity="0.55" d="M17.5458 16.4828L26.1622 28.163H18.7461L15.9683 16.0498L18.7461 3.86769H26.1622L17.5489 15.6069L17.2245 16.0498L17.5458 16.4828Z" fill="#FFFFFF"/>
  <path class="dark-mode" opacity="0.2" d="M19.1988 17.3618L30 28.163H26.1622L17.2245 16.0498L26.1622 3.86769H30L17.8836 16.0466L19.1988 17.3618Z" fill="#FFFFFF"/>
</svg>
