<?xml version="1.0" encoding="UTF-8"?>
<svg width="104px" height="104px" viewBox="0 0 104 104" version="1.1" xmlns="http://www.w3.org/2000/svg" xmlns:xlink="http://www.w3.org/1999/xlink">
    <title>Group</title>
    <g id="Page-1" stroke="none" stroke-width="1" fill="none" fill-rule="evenodd">
        <g id="GDPR-Badges" transform="translate(-528, -19)">
            <g id="Group" transform="translate(528, 19)">
                <rect id="Rectangle-" fill="#2050E0" x="0" y="0" width="104" height="104" rx="52"></rect>
                <g transform="translate(52.1217, 52.0811)" fill="#FFCC00" fill-rule="nonzero">
                    <g id="s-link" transform="translate(0, -33.3874)">
                        <g id="c">
                            <polygon id="t" transform="translate(0.4633, -2.4886) rotate(18) translate(-0.4633, 2.4886)" points="-0.927860211 -5.27085522 -0.927860211 0.293711796 1.8544233 0.293711796"></polygon>
                            <g id="t-link" transform="translate(-2253.6496, 1502.4331) scale(-1, 1) translate(2253.6496, -1502.4331)translate(-4507.2993, 0)">
                                <polygon id="t" transform="translate(0.4633, -2.4886) rotate(18) translate(-0.4633, 2.4886)" points="-0.927860211 -5.27085522 -0.927860211 0.293711796 1.8544233 0.293711796"></polygon>
                            </g>
                        </g>
                        <g id="a">
                            <g id="c" transform="translate(-732.4827, 2607.6255) rotate(72) translate(732.4827, -2607.6255)translate(-2986.1324, 1105.1924)">
                                <polygon id="t" transform="translate(0.4633, -2.4886) rotate(18) translate(-0.4633, 2.4886)" points="-0.927860211 -5.27085522 -0.927860211 0.293711796 1.8544233 0.293711796"></polygon>
                                <g id="t-link" transform="translate(-2253.6496, 1502.4331) scale(-1, 1) translate(2253.6496, -1502.4331)translate(-4507.2993, 0)">
                                    <polygon id="t" transform="translate(0.4633, -2.4886) rotate(18) translate(-0.4633, 2.4886)" points="-0.927860211 -5.27085522 -0.927860211 0.293711796 1.8544233 0.293711796"></polygon>
                                </g>
                            </g>
                            <g id="c" transform="translate(-2706.3489, 109.1681) rotate(144) translate(2706.3489, -109.1681)translate(-4959.9985, -1393.265)">
                                <polygon id="t" transform="translate(0.4633, -2.4886) rotate(18) translate(-0.4633, 2.4886)" points="-0.927860211 -5.27085522 -0.927860211 0.293711796 1.8544233 0.293711796"></polygon>
                                <g id="t-link" transform="translate(-2253.6496, 1502.4331) scale(-1, 1) translate(2253.6496, -1502.4331)translate(-4507.2993, 0)">
                                    <polygon id="t" transform="translate(0.4633, -2.4886) rotate(18) translate(-0.4633, 2.4886)" points="-0.927860211 -5.27085522 -0.927860211 0.293711796 1.8544233 0.293711796"></polygon>
                                </g>
                            </g>
                        </g>
                        <g id="a" transform="translate(-2253.6496, 1502.4331) scale(-1, 1) translate(2253.6496, -1502.4331)translate(-4507.2993, 0)">
                            <g id="c" transform="translate(-732.4827, 2607.6255) rotate(72) translate(732.4827, -2607.6255)translate(-2986.1324, 1105.1924)">
                                <polygon id="t" transform="translate(0.4633, -2.4886) rotate(18) translate(-0.4633, 2.4886)" points="-0.927860211 -5.27085522 -0.927860211 0.293711796 1.8544233 0.293711796"></polygon>
                                <g id="t-link" transform="translate(-2253.6496, 1502.4331) scale(-1, 1) translate(2253.6496, -1502.4331)translate(-4507.2993, 0)">
                                    <polygon id="t" transform="translate(0.4633, -2.4886) rotate(18) translate(-0.4633, 2.4886)" points="-0.927860211 -5.27085522 -0.927860211 0.293711796 1.8544233 0.293711796"></polygon>
                                </g>
                            </g>
                            <g id="c" transform="translate(-2706.3489, 109.1681) rotate(144) translate(2706.3489, -109.1681)translate(-4959.9985, -1393.265)">
                                <polygon id="t" transform="translate(0.4633, -2.4886) rotate(18) translate(-0.4633, 2.4886)" points="-0.927860211 -5.27085522 -0.927860211 0.293711796 1.8544233 0.293711796"></polygon>
                                <g id="t-link" transform="translate(-2253.6496, 1502.4331) scale(-1, 1) translate(2253.6496, -1502.4331)translate(-4507.2993, 0)">
                                    <polygon id="t" transform="translate(0.4633, -2.4886) rotate(18) translate(-0.4633, 2.4886)" points="-0.927860211 -5.27085522 -0.927860211 0.293711796 1.8544233 0.293711796"></polygon>
                                </g>
                            </g>
                        </g>
                    </g>
                    <g id="s-link" transform="translate(0, 33.3874)">
                        <g id="c">
                            <polygon id="t" transform="translate(0.4633, -2.4886) rotate(18) translate(-0.4633, 2.4886)" points="-0.927860211 -5.27085522 -0.927860211 0.293711796 1.8544233 0.293711796"></polygon>
                            <g id="t-link" transform="translate(-2253.6496, 1502.4331) scale(-1, 1) translate(2253.6496, -1502.4331)translate(-4507.2993, 0)">
                                <polygon id="t" transform="translate(0.4633, -2.4886) rotate(18) translate(-0.4633, 2.4886)" points="-0.927860211 -5.27085522 -0.927860211 0.293711796 1.8544233 0.293711796"></polygon>
                            </g>
                        </g>
                        <g id="a">
                            <g id="c" transform="translate(-732.4827, 2607.6255) rotate(72) translate(732.4827, -2607.6255)translate(-2986.1324, 1105.1924)">
                                <polygon id="t" transform="translate(0.4633, -2.4886) rotate(18) translate(-0.4633, 2.4886)" points="-0.927860211 -5.27085522 -0.927860211 0.293711796 1.8544233 0.293711796"></polygon>
                                <g id="t-link" transform="translate(-2253.6496, 1502.4331) scale(-1, 1) translate(2253.6496, -1502.4331)translate(-4507.2993, 0)">
                                    <polygon id="t" transform="translate(0.4633, -2.4886) rotate(18) translate(-0.4633, 2.4886)" points="-0.927860211 -5.27085522 -0.927860211 0.293711796 1.8544233 0.293711796"></polygon>
                                </g>
                            </g>
                            <g id="c" transform="translate(-2706.3489, 109.1681) rotate(144) translate(2706.3489, -109.1681)translate(-4959.9985, -1393.265)">
                                <polygon id="t" transform="translate(0.4633, -2.4886) rotate(18) translate(-0.4633, 2.4886)" points="-0.927860211 -5.27085522 -0.927860211 0.293711796 1.8544233 0.293711796"></polygon>
                                <g id="t-link" transform="translate(-2253.6496, 1502.4331) scale(-1, 1) translate(2253.6496, -1502.4331)translate(-4507.2993, 0)">
                                    <polygon id="t" transform="translate(0.4633, -2.4886) rotate(18) translate(-0.4633, 2.4886)" points="-0.927860211 -5.27085522 -0.927860211 0.293711796 1.8544233 0.293711796"></polygon>
                                </g>
                            </g>
                        </g>
                        <g id="a" transform="translate(-2253.6496, 1502.4331) scale(-1, 1) translate(2253.6496, -1502.4331)translate(-4507.2993, 0)">
                            <g id="c" transform="translate(-732.4827, 2607.6255) rotate(72) translate(732.4827, -2607.6255)translate(-2986.1324, 1105.1924)">
                                <polygon id="t" transform="translate(0.4633, -2.4886) rotate(18) translate(-0.4633, 2.4886)" points="-0.927860211 -5.27085522 -0.927860211 0.293711796 1.8544233 0.293711796"></polygon>
                                <g id="t-link" transform="translate(-2253.6496, 1502.4331) scale(-1, 1) translate(2253.6496, -1502.4331)translate(-4507.2993, 0)">
                                    <polygon id="t" transform="translate(0.4633, -2.4886) rotate(18) translate(-0.4633, 2.4886)" points="-0.927860211 -5.27085522 -0.927860211 0.293711796 1.8544233 0.293711796"></polygon>
                                </g>
                            </g>
                            <g id="c" transform="translate(-2706.3489, 109.1681) rotate(144) translate(2706.3489, -109.1681)translate(-4959.9985, -1393.265)">
                                <polygon id="t" transform="translate(0.4633, -2.4886) rotate(18) translate(-0.4633, 2.4886)" points="-0.927860211 -5.27085522 -0.927860211 0.293711796 1.8544233 0.293711796"></polygon>
                                <g id="t-link" transform="translate(-2253.6496, 1502.4331) scale(-1, 1) translate(2253.6496, -1502.4331)translate(-4507.2993, 0)">
                                    <polygon id="t" transform="translate(0.4633, -2.4886) rotate(18) translate(-0.4633, 2.4886)" points="-0.927860211 -5.27085522 -0.927860211 0.293711796 1.8544233 0.293711796"></polygon>
                                </g>
                            </g>
                        </g>
                    </g>
                    <g id="l">
                        <g id="s-link" transform="translate(-33.3874, 0)">
                            <g id="c">
                                <polygon id="t" transform="translate(0.4633, -2.4886) rotate(18) translate(-0.4633, 2.4886)" points="-0.927860211 -5.27085522 -0.927860211 0.293711796 1.8544233 0.293711796"></polygon>
                                <g id="t-link" transform="translate(-2253.6496, 1502.4331) scale(-1, 1) translate(2253.6496, -1502.4331)translate(-4507.2993, 0)">
                                    <polygon id="t" transform="translate(0.4633, -2.4886) rotate(18) translate(-0.4633, 2.4886)" points="-0.927860211 -5.27085522 -0.927860211 0.293711796 1.8544233 0.293711796"></polygon>
                                </g>
                            </g>
                            <g id="a">
                                <g id="c" transform="translate(-732.4827, 2607.6255) rotate(72) translate(732.4827, -2607.6255)translate(-2986.1324, 1105.1924)">
                                    <polygon id="t" transform="translate(0.4633, -2.4886) rotate(18) translate(-0.4633, 2.4886)" points="-0.927860211 -5.27085522 -0.927860211 0.293711796 1.8544233 0.293711796"></polygon>
                                    <g id="t-link" transform="translate(-2253.6496, 1502.4331) scale(-1, 1) translate(2253.6496, -1502.4331)translate(-4507.2993, 0)">
                                        <polygon id="t" transform="translate(0.4633, -2.4886) rotate(18) translate(-0.4633, 2.4886)" points="-0.927860211 -5.27085522 -0.927860211 0.293711796 1.8544233 0.293711796"></polygon>
                                    </g>
                                </g>
                                <g id="c" transform="translate(-2706.3489, 109.1681) rotate(144) translate(2706.3489, -109.1681)translate(-4959.9985, -1393.265)">
                                    <polygon id="t" transform="translate(0.4633, -2.4886) rotate(18) translate(-0.4633, 2.4886)" points="-0.927860211 -5.27085522 -0.927860211 0.293711796 1.8544233 0.293711796"></polygon>
                                    <g id="t-link" transform="translate(-2253.6496, 1502.4331) scale(-1, 1) translate(2253.6496, -1502.4331)translate(-4507.2993, 0)">
                                        <polygon id="t" transform="translate(0.4633, -2.4886) rotate(18) translate(-0.4633, 2.4886)" points="-0.927860211 -5.27085522 -0.927860211 0.293711796 1.8544233 0.293711796"></polygon>
                                    </g>
                                </g>
                            </g>
                            <g id="a" transform="translate(-2253.6496, 1502.4331) scale(-1, 1) translate(2253.6496, -1502.4331)translate(-4507.2993, 0)">
                                <g id="c" transform="translate(-732.4827, 2607.6255) rotate(72) translate(732.4827, -2607.6255)translate(-2986.1324, 1105.1924)">
                                    <polygon id="t" transform="translate(0.4633, -2.4886) rotate(18) translate(-0.4633, 2.4886)" points="-0.927860211 -5.27085522 -0.927860211 0.293711796 1.8544233 0.293711796"></polygon>
                                    <g id="t-link" transform="translate(-2253.6496, 1502.4331) scale(-1, 1) translate(2253.6496, -1502.4331)translate(-4507.2993, 0)">
                                        <polygon id="t" transform="translate(0.4633, -2.4886) rotate(18) translate(-0.4633, 2.4886)" points="-0.927860211 -5.27085522 -0.927860211 0.293711796 1.8544233 0.293711796"></polygon>
                                    </g>
                                </g>
                                <g id="c" transform="translate(-2706.3489, 109.1681) rotate(144) translate(2706.3489, -109.1681)translate(-4959.9985, -1393.265)">
                                    <polygon id="t" transform="translate(0.4633, -2.4886) rotate(18) translate(-0.4633, 2.4886)" points="-0.927860211 -5.27085522 -0.927860211 0.293711796 1.8544233 0.293711796"></polygon>
                                    <g id="t-link" transform="translate(-2253.6496, 1502.4331) scale(-1, 1) translate(2253.6496, -1502.4331)translate(-4507.2993, 0)">
                                        <polygon id="t" transform="translate(0.4633, -2.4886) rotate(18) translate(-0.4633, 2.4886)" points="-0.927860211 -5.27085522 -0.927860211 0.293711796 1.8544233 0.293711796"></polygon>
                                    </g>
                                </g>
                            </g>
                        </g>
                        <g id="s" transform="translate(-956.8265, -2569.0703) rotate(-144) translate(956.8265, 2569.0703)translate(-3210.4762, -4071.5034)">
                            <g id="c">
                                <polygon id="t" transform="translate(0.4633, -2.4886) rotate(18) translate(-0.4633, 2.4886)" points="-0.927860211 -5.27085522 -0.927860211 0.293711796 1.8544233 0.293711796"></polygon>
                                <g id="t-link" transform="translate(-2253.6496, 1502.4331) scale(-1, 1) translate(2253.6496, -1502.4331)translate(-4507.2993, 0)">
                                    <polygon id="t" transform="translate(0.4633, -2.4886) rotate(18) translate(-0.4633, 2.4886)" points="-0.927860211 -5.27085522 -0.927860211 0.293711796 1.8544233 0.293711796"></polygon>
                                </g>
                            </g>
                            <g id="a">
                                <g id="c" transform="translate(-732.4827, 2607.6255) rotate(72) translate(732.4827, -2607.6255)translate(-2986.1324, 1105.1924)">
                                    <polygon id="t" transform="translate(0.4633, -2.4886) rotate(18) translate(-0.4633, 2.4886)" points="-0.927860211 -5.27085522 -0.927860211 0.293711796 1.8544233 0.293711796"></polygon>
                                    <g id="t-link" transform="translate(-2253.6496, 1502.4331) scale(-1, 1) translate(2253.6496, -1502.4331)translate(-4507.2993, 0)">
                                        <polygon id="t" transform="translate(0.4633, -2.4886) rotate(18) translate(-0.4633, 2.4886)" points="-0.927860211 -5.27085522 -0.927860211 0.293711796 1.8544233 0.293711796"></polygon>
                                    </g>
                                </g>
                                <g id="c" transform="translate(-2706.3489, 109.1681) rotate(144) translate(2706.3489, -109.1681)translate(-4959.9985, -1393.265)">
                                    <polygon id="t" transform="translate(0.4633, -2.4886) rotate(18) translate(-0.4633, 2.4886)" points="-0.927860211 -5.27085522 -0.927860211 0.293711796 1.8544233 0.293711796"></polygon>
                                    <g id="t-link" transform="translate(-2253.6496, 1502.4331) scale(-1, 1) translate(2253.6496, -1502.4331)translate(-4507.2993, 0)">
                                        <polygon id="t" transform="translate(0.4633, -2.4886) rotate(18) translate(-0.4633, 2.4886)" points="-0.927860211 -5.27085522 -0.927860211 0.293711796 1.8544233 0.293711796"></polygon>
                                    </g>
                                </g>
                            </g>
                            <g id="a" transform="translate(-2253.6496, 1502.4331) scale(-1, 1) translate(2253.6496, -1502.4331)translate(-4507.2993, 0)">
                                <g id="c" transform="translate(-732.4827, 2607.6255) rotate(72) translate(732.4827, -2607.6255)translate(-2986.1324, 1105.1924)">
                                    <polygon id="t" transform="translate(0.4633, -2.4886) rotate(18) translate(-0.4633, 2.4886)" points="-0.927860211 -5.27085522 -0.927860211 0.293711796 1.8544233 0.293711796"></polygon>
                                    <g id="t-link" transform="translate(-2253.6496, 1502.4331) scale(-1, 1) translate(2253.6496, -1502.4331)translate(-4507.2993, 0)">
                                        <polygon id="t" transform="translate(0.4633, -2.4886) rotate(18) translate(-0.4633, 2.4886)" points="-0.927860211 -5.27085522 -0.927860211 0.293711796 1.8544233 0.293711796"></polygon>
                                    </g>
                                </g>
                                <g id="c" transform="translate(-2706.3489, 109.1681) rotate(144) translate(2706.3489, -109.1681)translate(-4959.9985, -1393.265)">
                                    <polygon id="t" transform="translate(0.4633, -2.4886) rotate(18) translate(-0.4633, 2.4886)" points="-0.927860211 -5.27085522 -0.927860211 0.293711796 1.8544233 0.293711796"></polygon>
                                    <g id="t-link" transform="translate(-2253.6496, 1502.4331) scale(-1, 1) translate(2253.6496, -1502.4331)translate(-4507.2993, 0)">
                                        <polygon id="t" transform="translate(0.4633, -2.4886) rotate(18) translate(-0.4633, 2.4886)" points="-0.927860211 -5.27085522 -0.927860211 0.293711796 1.8544233 0.293711796"></polygon>
                                    </g>
                                </g>
                            </g>
                        </g>
                        <g id="s" transform="translate(-2735.2632, 92.4744) rotate(144) translate(2735.2632, -92.4744)translate(-4988.9129, -1409.9587)">
                            <g id="c">
                                <polygon id="t" transform="translate(0.4633, -2.4886) rotate(18) translate(-0.4633, 2.4886)" points="-0.927860211 -5.27085522 -0.927860211 0.293711796 1.8544233 0.293711796"></polygon>
                                <g id="t-link" transform="translate(-2253.6496, 1502.4331) scale(-1, 1) translate(2253.6496, -1502.4331)translate(-4507.2993, 0)">
                                    <polygon id="t" transform="translate(0.4633, -2.4886) rotate(18) translate(-0.4633, 2.4886)" points="-0.927860211 -5.27085522 -0.927860211 0.293711796 1.8544233 0.293711796"></polygon>
                                </g>
                            </g>
                            <g id="a">
                                <g id="c" transform="translate(-732.4827, 2607.6255) rotate(72) translate(732.4827, -2607.6255)translate(-2986.1324, 1105.1924)">
                                    <polygon id="t" transform="translate(0.4633, -2.4886) rotate(18) translate(-0.4633, 2.4886)" points="-0.927860211 -5.27085522 -0.927860211 0.293711796 1.8544233 0.293711796"></polygon>
                                    <g id="t-link" transform="translate(-2253.6496, 1502.4331) scale(-1, 1) translate(2253.6496, -1502.4331)translate(-4507.2993, 0)">
                                        <polygon id="t" transform="translate(0.4633, -2.4886) rotate(18) translate(-0.4633, 2.4886)" points="-0.927860211 -5.27085522 -0.927860211 0.293711796 1.8544233 0.293711796"></polygon>
                                    </g>
                                </g>
                                <g id="c" transform="translate(-2706.3489, 109.1681) rotate(144) translate(2706.3489, -109.1681)translate(-4959.9985, -1393.265)">
                                    <polygon id="t" transform="translate(0.4633, -2.4886) rotate(18) translate(-0.4633, 2.4886)" points="-0.927860211 -5.27085522 -0.927860211 0.293711796 1.8544233 0.293711796"></polygon>
                                    <g id="t-link" transform="translate(-2253.6496, 1502.4331) scale(-1, 1) translate(2253.6496, -1502.4331)translate(-4507.2993, 0)">
                                        <polygon id="t" transform="translate(0.4633, -2.4886) rotate(18) translate(-0.4633, 2.4886)" points="-0.927860211 -5.27085522 -0.927860211 0.293711796 1.8544233 0.293711796"></polygon>
                                    </g>
                                </g>
                            </g>
                            <g id="a" transform="translate(-2253.6496, 1502.4331) scale(-1, 1) translate(2253.6496, -1502.4331)translate(-4507.2993, 0)">
                                <g id="c" transform="translate(-732.4827, 2607.6255) rotate(72) translate(732.4827, -2607.6255)translate(-2986.1324, 1105.1924)">
                                    <polygon id="t" transform="translate(0.4633, -2.4886) rotate(18) translate(-0.4633, 2.4886)" points="-0.927860211 -5.27085522 -0.927860211 0.293711796 1.8544233 0.293711796"></polygon>
                                    <g id="t-link" transform="translate(-2253.6496, 1502.4331) scale(-1, 1) translate(2253.6496, -1502.4331)translate(-4507.2993, 0)">
                                        <polygon id="t" transform="translate(0.4633, -2.4886) rotate(18) translate(-0.4633, 2.4886)" points="-0.927860211 -5.27085522 -0.927860211 0.293711796 1.8544233 0.293711796"></polygon>
                                    </g>
                                </g>
                                <g id="c" transform="translate(-2706.3489, 109.1681) rotate(144) translate(2706.3489, -109.1681)translate(-4959.9985, -1393.265)">
                                    <polygon id="t" transform="translate(0.4633, -2.4886) rotate(18) translate(-0.4633, 2.4886)" points="-0.927860211 -5.27085522 -0.927860211 0.293711796 1.8544233 0.293711796"></polygon>
                                    <g id="t-link" transform="translate(-2253.6496, 1502.4331) scale(-1, 1) translate(2253.6496, -1502.4331)translate(-4507.2993, 0)">
                                        <polygon id="t" transform="translate(0.4633, -2.4886) rotate(18) translate(-0.4633, 2.4886)" points="-0.927860211 -5.27085522 -0.927860211 0.293711796 1.8544233 0.293711796"></polygon>
                                    </g>
                                </g>
                            </g>
                        </g>
                        <g id="s" transform="translate(-761.3971, 2624.3192) rotate(72) translate(761.3971, -2624.3192)translate(-3015.0467, 1121.8861)">
                            <g id="c">
                                <polygon id="t" transform="translate(0.4633, -2.4886) rotate(18) translate(-0.4633, 2.4886)" points="-0.927860211 -5.27085522 -0.927860211 0.293711796 1.8544233 0.293711796"></polygon>
                                <g id="t-link" transform="translate(-2253.6496, 1502.4331) scale(-1, 1) translate(2253.6496, -1502.4331)translate(-4507.2993, 0)">
                                    <polygon id="t" transform="translate(0.4633, -2.4886) rotate(18) translate(-0.4633, 2.4886)" points="-0.927860211 -5.27085522 -0.927860211 0.293711796 1.8544233 0.293711796"></polygon>
                                </g>
                            </g>
                            <g id="a">
                                <g id="c" transform="translate(-732.4827, 2607.6255) rotate(72) translate(732.4827, -2607.6255)translate(-2986.1324, 1105.1924)">
                                    <polygon id="t" transform="translate(0.4633, -2.4886) rotate(18) translate(-0.4633, 2.4886)" points="-0.927860211 -5.27085522 -0.927860211 0.293711796 1.8544233 0.293711796"></polygon>
                                    <g id="t-link" transform="translate(-2253.6496, 1502.4331) scale(-1, 1) translate(2253.6496, -1502.4331)translate(-4507.2993, 0)">
                                        <polygon id="t" transform="translate(0.4633, -2.4886) rotate(18) translate(-0.4633, 2.4886)" points="-0.927860211 -5.27085522 -0.927860211 0.293711796 1.8544233 0.293711796"></polygon>
                                    </g>
                                </g>
                                <g id="c" transform="translate(-2706.3489, 109.1681) rotate(144) translate(2706.3489, -109.1681)translate(-4959.9985, -1393.265)">
                                    <polygon id="t" transform="translate(0.4633, -2.4886) rotate(18) translate(-0.4633, 2.4886)" points="-0.927860211 -5.27085522 -0.927860211 0.293711796 1.8544233 0.293711796"></polygon>
                                    <g id="t-link" transform="translate(-2253.6496, 1502.4331) scale(-1, 1) translate(2253.6496, -1502.4331)translate(-4507.2993, 0)">
                                        <polygon id="t" transform="translate(0.4633, -2.4886) rotate(18) translate(-0.4633, 2.4886)" points="-0.927860211 -5.27085522 -0.927860211 0.293711796 1.8544233 0.293711796"></polygon>
                                    </g>
                                </g>
                            </g>
                            <g id="a" transform="translate(-2253.6496, 1502.4331) scale(-1, 1) translate(2253.6496, -1502.4331)translate(-4507.2993, 0)">
                                <g id="c" transform="translate(-732.4827, 2607.6255) rotate(72) translate(732.4827, -2607.6255)translate(-2986.1324, 1105.1924)">
                                    <polygon id="t" transform="translate(0.4633, -2.4886) rotate(18) translate(-0.4633, 2.4886)" points="-0.927860211 -5.27085522 -0.927860211 0.293711796 1.8544233 0.293711796"></polygon>
                                    <g id="t-link" transform="translate(-2253.6496, 1502.4331) scale(-1, 1) translate(2253.6496, -1502.4331)translate(-4507.2993, 0)">
                                        <polygon id="t" transform="translate(0.4633, -2.4886) rotate(18) translate(-0.4633, 2.4886)" points="-0.927860211 -5.27085522 -0.927860211 0.293711796 1.8544233 0.293711796"></polygon>
                                    </g>
                                </g>
                                <g id="c" transform="translate(-2706.3489, 109.1681) rotate(144) translate(2706.3489, -109.1681)translate(-4959.9985, -1393.265)">
                                    <polygon id="t" transform="translate(0.4633, -2.4886) rotate(18) translate(-0.4633, 2.4886)" points="-0.927860211 -5.27085522 -0.927860211 0.293711796 1.8544233 0.293711796"></polygon>
                                    <g id="t-link" transform="translate(-2253.6496, 1502.4331) scale(-1, 1) translate(2253.6496, -1502.4331)translate(-4507.2993, 0)">
                                        <polygon id="t" transform="translate(0.4633, -2.4886) rotate(18) translate(-0.4633, 2.4886)" points="-0.927860211 -5.27085522 -0.927860211 0.293711796 1.8544233 0.293711796"></polygon>
                                    </g>
                                </g>
                            </g>
                        </g>
                        <g id="s" transform="translate(-749.1764, 2636.5399) rotate(72) translate(749.1764, -2636.5399)translate(-3002.8261, 1134.1068)">
                            <g id="c">
                                <polygon id="t" transform="translate(0.4633, -2.4886) rotate(18) translate(-0.4633, 2.4886)" points="-0.927860211 -5.27085522 -0.927860211 0.293711796 1.8544233 0.293711796"></polygon>
                                <g id="t-link" transform="translate(-2253.6496, 1502.4331) scale(-1, 1) translate(2253.6496, -1502.4331)translate(-4507.2993, 0)">
                                    <polygon id="t" transform="translate(0.4633, -2.4886) rotate(18) translate(-0.4633, 2.4886)" points="-0.927860211 -5.27085522 -0.927860211 0.293711796 1.8544233 0.293711796"></polygon>
                                </g>
                            </g>
                            <g id="a">
                                <g id="c" transform="translate(-732.4827, 2607.6255) rotate(72) translate(732.4827, -2607.6255)translate(-2986.1324, 1105.1924)">
                                    <polygon id="t" transform="translate(0.4633, -2.4886) rotate(18) translate(-0.4633, 2.4886)" points="-0.927860211 -5.27085522 -0.927860211 0.293711796 1.8544233 0.293711796"></polygon>
                                    <g id="t-link" transform="translate(-2253.6496, 1502.4331) scale(-1, 1) translate(2253.6496, -1502.4331)translate(-4507.2993, 0)">
                                        <polygon id="t" transform="translate(0.4633, -2.4886) rotate(18) translate(-0.4633, 2.4886)" points="-0.927860211 -5.27085522 -0.927860211 0.293711796 1.8544233 0.293711796"></polygon>
                                    </g>
                                </g>
                                <g id="c" transform="translate(-2706.3489, 109.1681) rotate(144) translate(2706.3489, -109.1681)translate(-4959.9985, -1393.265)">
                                    <polygon id="t" transform="translate(0.4633, -2.4886) rotate(18) translate(-0.4633, 2.4886)" points="-0.927860211 -5.27085522 -0.927860211 0.293711796 1.8544233 0.293711796"></polygon>
                                    <g id="t-link" transform="translate(-2253.6496, 1502.4331) scale(-1, 1) translate(2253.6496, -1502.4331)translate(-4507.2993, 0)">
                                        <polygon id="t" transform="translate(0.4633, -2.4886) rotate(18) translate(-0.4633, 2.4886)" points="-0.927860211 -5.27085522 -0.927860211 0.293711796 1.8544233 0.293711796"></polygon>
                                    </g>
                                </g>
                            </g>
                            <g id="a" transform="translate(-2253.6496, 1502.4331) scale(-1, 1) translate(2253.6496, -1502.4331)translate(-4507.2993, 0)">
                                <g id="c" transform="translate(-732.4827, 2607.6255) rotate(72) translate(732.4827, -2607.6255)translate(-2986.1324, 1105.1924)">
                                    <polygon id="t" transform="translate(0.4633, -2.4886) rotate(18) translate(-0.4633, 2.4886)" points="-0.927860211 -5.27085522 -0.927860211 0.293711796 1.8544233 0.293711796"></polygon>
                                    <g id="t-link" transform="translate(-2253.6496, 1502.4331) scale(-1, 1) translate(2253.6496, -1502.4331)translate(-4507.2993, 0)">
                                        <polygon id="t" transform="translate(0.4633, -2.4886) rotate(18) translate(-0.4633, 2.4886)" points="-0.927860211 -5.27085522 -0.927860211 0.293711796 1.8544233 0.293711796"></polygon>
                                    </g>
                                </g>
                                <g id="c" transform="translate(-2706.3489, 109.1681) rotate(144) translate(2706.3489, -109.1681)translate(-4959.9985, -1393.265)">
                                    <polygon id="t" transform="translate(0.4633, -2.4886) rotate(18) translate(-0.4633, 2.4886)" points="-0.927860211 -5.27085522 -0.927860211 0.293711796 1.8544233 0.293711796"></polygon>
                                    <g id="t-link" transform="translate(-2253.6496, 1502.4331) scale(-1, 1) translate(2253.6496, -1502.4331)translate(-4507.2993, 0)">
                                        <polygon id="t" transform="translate(0.4633, -2.4886) rotate(18) translate(-0.4633, 2.4886)" points="-0.927860211 -5.27085522 -0.927860211 0.293711796 1.8544233 0.293711796"></polygon>
                                    </g>
                                </g>
                            </g>
                        </g>
                    </g>
                    <g id="l" transform="translate(-2253.6496, 1502.4331) scale(-1, 1) translate(2253.6496, -1502.4331)translate(-4507.2993, 0)">
                        <g id="s-link" transform="translate(-33.3874, 0)">
                            <g id="c">
                                <polygon id="t" transform="translate(0.4633, -2.4886) rotate(18) translate(-0.4633, 2.4886)" points="-0.927860211 -5.27085522 -0.927860211 0.293711796 1.8544233 0.293711796"></polygon>
                                <g id="t-link" transform="translate(-2253.6496, 1502.4331) scale(-1, 1) translate(2253.6496, -1502.4331)translate(-4507.2993, 0)">
                                    <polygon id="t" transform="translate(0.4633, -2.4886) rotate(18) translate(-0.4633, 2.4886)" points="-0.927860211 -5.27085522 -0.927860211 0.293711796 1.8544233 0.293711796"></polygon>
                                </g>
                            </g>
                            <g id="a">
                                <g id="c" transform="translate(-732.4827, 2607.6255) rotate(72) translate(732.4827, -2607.6255)translate(-2986.1324, 1105.1924)">
                                    <polygon id="t" transform="translate(0.4633, -2.4886) rotate(18) translate(-0.4633, 2.4886)" points="-0.927860211 -5.27085522 -0.927860211 0.293711796 1.8544233 0.293711796"></polygon>
                                    <g id="t-link" transform="translate(-2253.6496, 1502.4331) scale(-1, 1) translate(2253.6496, -1502.4331)translate(-4507.2993, 0)">
                                        <polygon id="t" transform="translate(0.4633, -2.4886) rotate(18) translate(-0.4633, 2.4886)" points="-0.927860211 -5.27085522 -0.927860211 0.293711796 1.8544233 0.293711796"></polygon>
                                    </g>
                                </g>
                                <g id="c" transform="translate(-2706.3489, 109.1681) rotate(144) translate(2706.3489, -109.1681)translate(-4959.9985, -1393.265)">
                                    <polygon id="t" transform="translate(0.4633, -2.4886) rotate(18) translate(-0.4633, 2.4886)" points="-0.927860211 -5.27085522 -0.927860211 0.293711796 1.8544233 0.293711796"></polygon>
                                    <g id="t-link" transform="translate(-2253.6496, 1502.4331) scale(-1, 1) translate(2253.6496, -1502.4331)translate(-4507.2993, 0)">
                                        <polygon id="t" transform="translate(0.4633, -2.4886) rotate(18) translate(-0.4633, 2.4886)" points="-0.927860211 -5.27085522 -0.927860211 0.293711796 1.8544233 0.293711796"></polygon>
                                    </g>
                                </g>
                            </g>
                            <g id="a" transform="translate(-2253.6496, 1502.4331) scale(-1, 1) translate(2253.6496, -1502.4331)translate(-4507.2993, 0)">
                                <g id="c" transform="translate(-732.4827, 2607.6255) rotate(72) translate(732.4827, -2607.6255)translate(-2986.1324, 1105.1924)">
                                    <polygon id="t" transform="translate(0.4633, -2.4886) rotate(18) translate(-0.4633, 2.4886)" points="-0.927860211 -5.27085522 -0.927860211 0.293711796 1.8544233 0.293711796"></polygon>
                                    <g id="t-link" transform="translate(-2253.6496, 1502.4331) scale(-1, 1) translate(2253.6496, -1502.4331)translate(-4507.2993, 0)">
                                        <polygon id="t" transform="translate(0.4633, -2.4886) rotate(18) translate(-0.4633, 2.4886)" points="-0.927860211 -5.27085522 -0.927860211 0.293711796 1.8544233 0.293711796"></polygon>
                                    </g>
                                </g>
                                <g id="c" transform="translate(-2706.3489, 109.1681) rotate(144) translate(2706.3489, -109.1681)translate(-4959.9985, -1393.265)">
                                    <polygon id="t" transform="translate(0.4633, -2.4886) rotate(18) translate(-0.4633, 2.4886)" points="-0.927860211 -5.27085522 -0.927860211 0.293711796 1.8544233 0.293711796"></polygon>
                                    <g id="t-link" transform="translate(-2253.6496, 1502.4331) scale(-1, 1) translate(2253.6496, -1502.4331)translate(-4507.2993, 0)">
                                        <polygon id="t" transform="translate(0.4633, -2.4886) rotate(18) translate(-0.4633, 2.4886)" points="-0.927860211 -5.27085522 -0.927860211 0.293711796 1.8544233 0.293711796"></polygon>
                                    </g>
                                </g>
                            </g>
                        </g>
                        <g id="s" transform="translate(-956.8265, -2569.0703) rotate(-144) translate(956.8265, 2569.0703)translate(-3210.4762, -4071.5034)">
                            <g id="c">
                                <polygon id="t" transform="translate(0.4633, -2.4886) rotate(18) translate(-0.4633, 2.4886)" points="-0.927860211 -5.27085522 -0.927860211 0.293711796 1.8544233 0.293711796"></polygon>
                                <g id="t-link" transform="translate(-2253.6496, 1502.4331) scale(-1, 1) translate(2253.6496, -1502.4331)translate(-4507.2993, 0)">
                                    <polygon id="t" transform="translate(0.4633, -2.4886) rotate(18) translate(-0.4633, 2.4886)" points="-0.927860211 -5.27085522 -0.927860211 0.293711796 1.8544233 0.293711796"></polygon>
                                </g>
                            </g>
                            <g id="a">
                                <g id="c" transform="translate(-732.4827, 2607.6255) rotate(72) translate(732.4827, -2607.6255)translate(-2986.1324, 1105.1924)">
                                    <polygon id="t" transform="translate(0.4633, -2.4886) rotate(18) translate(-0.4633, 2.4886)" points="-0.927860211 -5.27085522 -0.927860211 0.293711796 1.8544233 0.293711796"></polygon>
                                    <g id="t-link" transform="translate(-2253.6496, 1502.4331) scale(-1, 1) translate(2253.6496, -1502.4331)translate(-4507.2993, 0)">
                                        <polygon id="t" transform="translate(0.4633, -2.4886) rotate(18) translate(-0.4633, 2.4886)" points="-0.927860211 -5.27085522 -0.927860211 0.293711796 1.8544233 0.293711796"></polygon>
                                    </g>
                                </g>
                                <g id="c" transform="translate(-2706.3489, 109.1681) rotate(144) translate(2706.3489, -109.1681)translate(-4959.9985, -1393.265)">
                                    <polygon id="t" transform="translate(0.4633, -2.4886) rotate(18) translate(-0.4633, 2.4886)" points="-0.927860211 -5.27085522 -0.927860211 0.293711796 1.8544233 0.293711796"></polygon>
                                    <g id="t-link" transform="translate(-2253.6496, 1502.4331) scale(-1, 1) translate(2253.6496, -1502.4331)translate(-4507.2993, 0)">
                                        <polygon id="t" transform="translate(0.4633, -2.4886) rotate(18) translate(-0.4633, 2.4886)" points="-0.927860211 -5.27085522 -0.927860211 0.293711796 1.8544233 0.293711796"></polygon>
                                    </g>
                                </g>
                            </g>
                            <g id="a" transform="translate(-2253.6496, 1502.4331) scale(-1, 1) translate(2253.6496, -1502.4331)translate(-4507.2993, 0)">
                                <g id="c" transform="translate(-732.4827, 2607.6255) rotate(72) translate(732.4827, -2607.6255)translate(-2986.1324, 1105.1924)">
                                    <polygon id="t" transform="translate(0.4633, -2.4886) rotate(18) translate(-0.4633, 2.4886)" points="-0.927860211 -5.27085522 -0.927860211 0.293711796 1.8544233 0.293711796"></polygon>
                                    <g id="t-link" transform="translate(-2253.6496, 1502.4331) scale(-1, 1) translate(2253.6496, -1502.4331)translate(-4507.2993, 0)">
                                        <polygon id="t" transform="translate(0.4633, -2.4886) rotate(18) translate(-0.4633, 2.4886)" points="-0.927860211 -5.27085522 -0.927860211 0.293711796 1.8544233 0.293711796"></polygon>
                                    </g>
                                </g>
                                <g id="c" transform="translate(-2706.3489, 109.1681) rotate(144) translate(2706.3489, -109.1681)translate(-4959.9985, -1393.265)">
                                    <polygon id="t" transform="translate(0.4633, -2.4886) rotate(18) translate(-0.4633, 2.4886)" points="-0.927860211 -5.27085522 -0.927860211 0.293711796 1.8544233 0.293711796"></polygon>
                                    <g id="t-link" transform="translate(-2253.6496, 1502.4331) scale(-1, 1) translate(2253.6496, -1502.4331)translate(-4507.2993, 0)">
                                        <polygon id="t" transform="translate(0.4633, -2.4886) rotate(18) translate(-0.4633, 2.4886)" points="-0.927860211 -5.27085522 -0.927860211 0.293711796 1.8544233 0.293711796"></polygon>
                                    </g>
                                </g>
                            </g>
                        </g>
                        <g id="s" transform="translate(-2735.2632, 92.4744) rotate(144) translate(2735.2632, -92.4744)translate(-4988.9129, -1409.9587)">
                            <g id="c">
                                <polygon id="t" transform="translate(0.4633, -2.4886) rotate(18) translate(-0.4633, 2.4886)" points="-0.927860211 -5.27085522 -0.927860211 0.293711796 1.8544233 0.293711796"></polygon>
                                <g id="t-link" transform="translate(-2253.6496, 1502.4331) scale(-1, 1) translate(2253.6496, -1502.4331)translate(-4507.2993, 0)">
                                    <polygon id="t" transform="translate(0.4633, -2.4886) rotate(18) translate(-0.4633, 2.4886)" points="-0.927860211 -5.27085522 -0.927860211 0.293711796 1.8544233 0.293711796"></polygon>
                                </g>
                            </g>
                            <g id="a">
                                <g id="c" transform="translate(-732.4827, 2607.6255) rotate(72) translate(732.4827, -2607.6255)translate(-2986.1324, 1105.1924)">
                                    <polygon id="t" transform="translate(0.4633, -2.4886) rotate(18) translate(-0.4633, 2.4886)" points="-0.927860211 -5.27085522 -0.927860211 0.293711796 1.8544233 0.293711796"></polygon>
                                    <g id="t-link" transform="translate(-2253.6496, 1502.4331) scale(-1, 1) translate(2253.6496, -1502.4331)translate(-4507.2993, 0)">
                                        <polygon id="t" transform="translate(0.4633, -2.4886) rotate(18) translate(-0.4633, 2.4886)" points="-0.927860211 -5.27085522 -0.927860211 0.293711796 1.8544233 0.293711796"></polygon>
                                    </g>
                                </g>
                                <g id="c" transform="translate(-2706.3489, 109.1681) rotate(144) translate(2706.3489, -109.1681)translate(-4959.9985, -1393.265)">
                                    <polygon id="t" transform="translate(0.4633, -2.4886) rotate(18) translate(-0.4633, 2.4886)" points="-0.927860211 -5.27085522 -0.927860211 0.293711796 1.8544233 0.293711796"></polygon>
                                    <g id="t-link" transform="translate(-2253.6496, 1502.4331) scale(-1, 1) translate(2253.6496, -1502.4331)translate(-4507.2993, 0)">
                                        <polygon id="t" transform="translate(0.4633, -2.4886) rotate(18) translate(-0.4633, 2.4886)" points="-0.927860211 -5.27085522 -0.927860211 0.293711796 1.8544233 0.293711796"></polygon>
                                    </g>
                                </g>
                            </g>
                            <g id="a" transform="translate(-2253.6496, 1502.4331) scale(-1, 1) translate(2253.6496, -1502.4331)translate(-4507.2993, 0)">
                                <g id="c" transform="translate(-732.4827, 2607.6255) rotate(72) translate(732.4827, -2607.6255)translate(-2986.1324, 1105.1924)">
                                    <polygon id="t" transform="translate(0.4633, -2.4886) rotate(18) translate(-0.4633, 2.4886)" points="-0.927860211 -5.27085522 -0.927860211 0.293711796 1.8544233 0.293711796"></polygon>
                                    <g id="t-link" transform="translate(-2253.6496, 1502.4331) scale(-1, 1) translate(2253.6496, -1502.4331)translate(-4507.2993, 0)">
                                        <polygon id="t" transform="translate(0.4633, -2.4886) rotate(18) translate(-0.4633, 2.4886)" points="-0.927860211 -5.27085522 -0.927860211 0.293711796 1.8544233 0.293711796"></polygon>
                                    </g>
                                </g>
                                <g id="c" transform="translate(-2706.3489, 109.1681) rotate(144) translate(2706.3489, -109.1681)translate(-4959.9985, -1393.265)">
                                    <polygon id="t" transform="translate(0.4633, -2.4886) rotate(18) translate(-0.4633, 2.4886)" points="-0.927860211 -5.27085522 -0.927860211 0.293711796 1.8544233 0.293711796"></polygon>
                                    <g id="t-link" transform="translate(-2253.6496, 1502.4331) scale(-1, 1) translate(2253.6496, -1502.4331)translate(-4507.2993, 0)">
                                        <polygon id="t" transform="translate(0.4633, -2.4886) rotate(18) translate(-0.4633, 2.4886)" points="-0.927860211 -5.27085522 -0.927860211 0.293711796 1.8544233 0.293711796"></polygon>
                                    </g>
                                </g>
                            </g>
                        </g>
                        <g id="s" transform="translate(-761.3971, 2624.3192) rotate(72) translate(761.3971, -2624.3192)translate(-3015.0467, 1121.8861)">
                            <g id="c">
                                <polygon id="t" transform="translate(0.4633, -2.4886) rotate(18) translate(-0.4633, 2.4886)" points="-0.927860211 -5.27085522 -0.927860211 0.293711796 1.8544233 0.293711796"></polygon>
                                <g id="t-link" transform="translate(-2253.6496, 1502.4331) scale(-1, 1) translate(2253.6496, -1502.4331)translate(-4507.2993, 0)">
                                    <polygon id="t" transform="translate(0.4633, -2.4886) rotate(18) translate(-0.4633, 2.4886)" points="-0.927860211 -5.27085522 -0.927860211 0.293711796 1.8544233 0.293711796"></polygon>
                                </g>
                            </g>
                            <g id="a">
                                <g id="c" transform="translate(-732.4827, 2607.6255) rotate(72) translate(732.4827, -2607.6255)translate(-2986.1324, 1105.1924)">
                                    <polygon id="t" transform="translate(0.4633, -2.4886) rotate(18) translate(-0.4633, 2.4886)" points="-0.927860211 -5.27085522 -0.927860211 0.293711796 1.8544233 0.293711796"></polygon>
                                    <g id="t-link" transform="translate(-2253.6496, 1502.4331) scale(-1, 1) translate(2253.6496, -1502.4331)translate(-4507.2993, 0)">
                                        <polygon id="t" transform="translate(0.4633, -2.4886) rotate(18) translate(-0.4633, 2.4886)" points="-0.927860211 -5.27085522 -0.927860211 0.293711796 1.8544233 0.293711796"></polygon>
                                    </g>
                                </g>
                                <g id="c" transform="translate(-2706.3489, 109.1681) rotate(144) translate(2706.3489, -109.1681)translate(-4959.9985, -1393.265)">
                                    <polygon id="t" transform="translate(0.4633, -2.4886) rotate(18) translate(-0.4633, 2.4886)" points="-0.927860211 -5.27085522 -0.927860211 0.293711796 1.8544233 0.293711796"></polygon>
                                    <g id="t-link" transform="translate(-2253.6496, 1502.4331) scale(-1, 1) translate(2253.6496, -1502.4331)translate(-4507.2993, 0)">
                                        <polygon id="t" transform="translate(0.4633, -2.4886) rotate(18) translate(-0.4633, 2.4886)" points="-0.927860211 -5.27085522 -0.927860211 0.293711796 1.8544233 0.293711796"></polygon>
                                    </g>
                                </g>
                            </g>
                            <g id="a" transform="translate(-2253.6496, 1502.4331) scale(-1, 1) translate(2253.6496, -1502.4331)translate(-4507.2993, 0)">
                                <g id="c" transform="translate(-732.4827, 2607.6255) rotate(72) translate(732.4827, -2607.6255)translate(-2986.1324, 1105.1924)">
                                    <polygon id="t" transform="translate(0.4633, -2.4886) rotate(18) translate(-0.4633, 2.4886)" points="-0.927860211 -5.27085522 -0.927860211 0.293711796 1.8544233 0.293711796"></polygon>
                                    <g id="t-link" transform="translate(-2253.6496, 1502.4331) scale(-1, 1) translate(2253.6496, -1502.4331)translate(-4507.2993, 0)">
                                        <polygon id="t" transform="translate(0.4633, -2.4886) rotate(18) translate(-0.4633, 2.4886)" points="-0.927860211 -5.27085522 -0.927860211 0.293711796 1.8544233 0.293711796"></polygon>
                                    </g>
                                </g>
                                <g id="c" transform="translate(-2706.3489, 109.1681) rotate(144) translate(2706.3489, -109.1681)translate(-4959.9985, -1393.265)">
                                    <polygon id="t" transform="translate(0.4633, -2.4886) rotate(18) translate(-0.4633, 2.4886)" points="-0.927860211 -5.27085522 -0.927860211 0.293711796 1.8544233 0.293711796"></polygon>
                                    <g id="t-link" transform="translate(-2253.6496, 1502.4331) scale(-1, 1) translate(2253.6496, -1502.4331)translate(-4507.2993, 0)">
                                        <polygon id="t" transform="translate(0.4633, -2.4886) rotate(18) translate(-0.4633, 2.4886)" points="-0.927860211 -5.27085522 -0.927860211 0.293711796 1.8544233 0.293711796"></polygon>
                                    </g>
                                </g>
                            </g>
                        </g>
                        <g id="s" transform="translate(-749.1764, 2636.5399) rotate(72) translate(749.1764, -2636.5399)translate(-3002.8261, 1134.1068)">
                            <g id="c">
                                <polygon id="t" transform="translate(0.4633, -2.4886) rotate(18) translate(-0.4633, 2.4886)" points="-0.927860211 -5.27085522 -0.927860211 0.293711796 1.8544233 0.293711796"></polygon>
                                <g id="t-link" transform="translate(-2253.6496, 1502.4331) scale(-1, 1) translate(2253.6496, -1502.4331)translate(-4507.2993, 0)">
                                    <polygon id="t" transform="translate(0.4633, -2.4886) rotate(18) translate(-0.4633, 2.4886)" points="-0.927860211 -5.27085522 -0.927860211 0.293711796 1.8544233 0.293711796"></polygon>
                                </g>
                            </g>
                            <g id="a">
                                <g id="c" transform="translate(-732.4827, 2607.6255) rotate(72) translate(732.4827, -2607.6255)translate(-2986.1324, 1105.1924)">
                                    <polygon id="t" transform="translate(0.4633, -2.4886) rotate(18) translate(-0.4633, 2.4886)" points="-0.927860211 -5.27085522 -0.927860211 0.293711796 1.8544233 0.293711796"></polygon>
                                    <g id="t-link" transform="translate(-2253.6496, 1502.4331) scale(-1, 1) translate(2253.6496, -1502.4331)translate(-4507.2993, 0)">
                                        <polygon id="t" transform="translate(0.4633, -2.4886) rotate(18) translate(-0.4633, 2.4886)" points="-0.927860211 -5.27085522 -0.927860211 0.293711796 1.8544233 0.293711796"></polygon>
                                    </g>
                                </g>
                                <g id="c" transform="translate(-2706.3489, 109.1681) rotate(144) translate(2706.3489, -109.1681)translate(-4959.9985, -1393.265)">
                                    <polygon id="t" transform="translate(0.4633, -2.4886) rotate(18) translate(-0.4633, 2.4886)" points="-0.927860211 -5.27085522 -0.927860211 0.293711796 1.8544233 0.293711796"></polygon>
                                    <g id="t-link" transform="translate(-2253.6496, 1502.4331) scale(-1, 1) translate(2253.6496, -1502.4331)translate(-4507.2993, 0)">
                                        <polygon id="t" transform="translate(0.4633, -2.4886) rotate(18) translate(-0.4633, 2.4886)" points="-0.927860211 -5.27085522 -0.927860211 0.293711796 1.8544233 0.293711796"></polygon>
                                    </g>
                                </g>
                            </g>
                            <g id="a" transform="translate(-2253.6496, 1502.4331) scale(-1, 1) translate(2253.6496, -1502.4331)translate(-4507.2993, 0)">
                                <g id="c" transform="translate(-732.4827, 2607.6255) rotate(72) translate(732.4827, -2607.6255)translate(-2986.1324, 1105.1924)">
                                    <polygon id="t" transform="translate(0.4633, -2.4886) rotate(18) translate(-0.4633, 2.4886)" points="-0.927860211 -5.27085522 -0.927860211 0.293711796 1.8544233 0.293711796"></polygon>
                                    <g id="t-link" transform="translate(-2253.6496, 1502.4331) scale(-1, 1) translate(2253.6496, -1502.4331)translate(-4507.2993, 0)">
                                        <polygon id="t" transform="translate(0.4633, -2.4886) rotate(18) translate(-0.4633, 2.4886)" points="-0.927860211 -5.27085522 -0.927860211 0.293711796 1.8544233 0.293711796"></polygon>
                                    </g>
                                </g>
                                <g id="c" transform="translate(-2706.3489, 109.1681) rotate(144) translate(2706.3489, -109.1681)translate(-4959.9985, -1393.265)">
                                    <polygon id="t" transform="translate(0.4633, -2.4886) rotate(18) translate(-0.4633, 2.4886)" points="-0.927860211 -5.27085522 -0.927860211 0.293711796 1.8544233 0.293711796"></polygon>
                                    <g id="t-link" transform="translate(-2253.6496, 1502.4331) scale(-1, 1) translate(2253.6496, -1502.4331)translate(-4507.2993, 0)">
                                        <polygon id="t" transform="translate(0.4633, -2.4886) rotate(18) translate(-0.4633, 2.4886)" points="-0.927860211 -5.27085522 -0.927860211 0.293711796 1.8544233 0.293711796"></polygon>
                                    </g>
                                </g>
                            </g>
                        </g>
                    </g>
                </g>
                <path d="M59.8571429,49.0625 L58.7857143,49.0625 L58.7857143,45.828125 C58.7857143,42.0636719 55.7410714,39 52,39 C48.2589286,39 45.2142857,42.0636719 45.2142857,45.828125 L45.2142857,49.0625 L44.1428571,49.0625 C42.9598214,49.0625 42,50.0283203 42,51.21875 L42,59.84375 C42,61.0341797 42.9598214,62 44.1428571,62 L59.8571429,62 C61.0401786,62 62,61.0341797 62,59.84375 L62,51.21875 C62,50.0283203 61.0401786,49.0625 59.8571429,49.0625 Z M55.2142857,49.0625 L48.7857143,49.0625 L48.7857143,45.828125 C48.7857143,44.0447266 50.2276786,42.59375 52,42.59375 C53.7723214,42.59375 55.2142857,44.0447266 55.2142857,45.828125 L55.2142857,49.0625 Z" id="Shape" fill="#FFFFFF" fill-rule="nonzero"></path>
            </g>
        </g>
    </g>
</svg>